HIERARCHY
ROOT hip
{
	OFFSET 0.000000 0.000000 0.000000
	CHANNELS 6 Xposition Yposition Zposition Xrotation Zrotation Yrotation 
	JOINT abdomen
	{
		OFFSET 0.000000 3.422050 0.000000
		CHANNELS 3 Xrotation Zrotation Yrotation 
		JOINT chest
		{
			OFFSET 0.000000 8.486693 -0.684411
			CHANNELS 3 Xrotation Zrotation Yrotation 
			JOINT neck
			{
				OFFSET 0.000000 10.266162 -0.273764
				CHANNELS 3 Xrotation Zrotation Yrotation 
				JOINT head
				{
					OFFSET 0.000000 3.148285 0.000000
					CHANNELS 3 Xrotation Zrotation Yrotation 
					End Site
					{
						OFFSET 0.000000 3.148289 0.000000
					}
				}
			}
			JOINT lCollar
			{
				OFFSET 3.422053 6.707223 -0.821293
				CHANNELS 3 Yrotation Zrotation Xrotation 
				JOINT lShldr
				{
					OFFSET 3.285171 0.000000 0.000000
					CHANNELS 3 Zrotation Yrotation Xrotation 
					JOINT lForeArm
					{
						OFFSET 10.129278 0.000000 0.000000
						CHANNELS 3 Yrotation Zrotation Xrotation 
						JOINT lHand
						{
							OFFSET 8.486692 0.000000 0.000000
							CHANNELS 3 Zrotation Yrotation Xrotation 
							End Site
							{
								OFFSET 4.106464 0.000000 0.000000
							}
						}
					}
				}
			}
			JOINT rCollar
			{
				OFFSET -3.558935 6.707223 -0.821293
				CHANNELS 3 Yrotation Zrotation Xrotation 
				JOINT rShldr
				{
					OFFSET -3.148289 0.000000 0.000000
					CHANNELS 3 Zrotation Yrotation Xrotation 
					JOINT rForeArm
					{
						OFFSET -10.266159 0.000000 0.000000
						CHANNELS 3 Yrotation Zrotation Xrotation 
						JOINT rHand
						{
							OFFSET -8.349810 0.000000 0.000000
							CHANNELS 3 Zrotation Yrotation Xrotation 
							End Site
							{
								OFFSET -4.106464 0.000000 0.000000
							}
						}
					}
				}
			}
		}
	}
	JOINT lThigh
	{
		OFFSET 5.338403 -1.642589 1.368821
		CHANNELS 3 Xrotation Zrotation Yrotation 
		JOINT lShin
		{
			OFFSET -2.053232 -20.121670 0.000000
			CHANNELS 3 Xrotation Zrotation Yrotation 
			JOINT lFoot
			{
				OFFSET 0.000000 -19.300380 -1.231939
				CHANNELS 3 Xrotation Yrotation Zrotation 
				End Site
				{
					OFFSET 0.000000 -2.463878 4.653993
				}
			}
		}
	}
	JOINT rThigh
	{
		OFFSET -5.338403 -1.642589 1.368821
		CHANNELS 3 Xrotation Zrotation Yrotation 
		JOINT rShin
		{
			OFFSET 2.053232 -20.121670 0.000000
			CHANNELS 3 Xrotation Zrotation Yrotation 
			JOINT rFoot
			{
				OFFSET 0.000000 -19.300380 -1.231939
				CHANNELS 3 Xrotation Yrotation Zrotation 
				End Site
				{
					OFFSET 0.000000 -2.463878 4.653993
				}
			}
		}
	}
}
MOTION
Frames: 18
Frame Time: 0.033264
0.000000 6.459362 0.000000 -89.999146 -0.002630 -88.998940 -0.446646 0.315407 -0.275759 -0.319891 0.344838 -1.125320 -0.056762 -22.104445 0.008510 -1.435028 -18.315468 -15.805044 -2.001868 -30.000090 -10.003426 -35.593987 -13.933694 10.119851 -97.243568 2.909726 -7.479241 -15.442052 -3.998277 -19.353378 -16.341347 -25.507147 -4.296544 -94.738838 63.539215 -178.075180 47.562428 -15.735660 -0.211226 -23.093353 5.739162 -12.910153 -32.560173 -12.418792 0.582849 48.977840 19.940199 8.698886 6.502425 -19.300364 -6.062202 -4.580662 -3.431539 -0.421203 55.245770 4.701371 -0.356979 20.721914 9.044955 0.391646 
0.000000 6.459362 0.000000 -89.999146 -0.002635 -88.998932 -0.446646 0.315407 -0.275759 -0.319891 0.344838 -1.125320 -0.051638 -22.277304 0.007824 -1.398264 -18.561039 -15.912690 -2.001868 -30.000090 -10.003426 -35.635563 -13.797061 10.261080 -97.042137 2.873925 -7.555725 -15.393681 -4.105464 -19.350721 -16.341347 -25.507147 -4.296544 -94.738838 63.539215 -178.075180 47.562428 -15.735660 -0.211226 -23.093353 5.739161 -12.910153 -32.560173 -12.418792 0.582849 48.977840 19.940199 8.698886 6.502425 -19.300364 -6.062202 -4.580662 -3.431539 -0.421203 55.245766 4.701371 -0.356979 20.721914 9.044955 0.391646 
0.000000 6.459362 0.000000 -89.999138 -0.002637 -88.998932 -0.446646 0.315407 -0.275759 -0.319891 0.344838 -1.125320 -0.046507 -22.450104 0.007121 -1.360987 -18.806360 -16.020580 -2.001868 -30.000090 -10.003426 -35.676773 -13.660310 10.402148 -96.840721 2.837849 -7.632092 -15.345304 -4.212657 -19.348152 -16.341347 -25.507147 -4.296544 -94.738838 63.539215 -178.075180 47.562428 -15.735660 -0.211226 -23.093353 5.739161 -12.910153 -32.560173 -12.418792 0.582849 48.977840 19.940199 8.698886 6.502425 -19.300364 -6.062202 -4.580662 -3.431539 -0.421203 55.245766 4.701371 -0.356979 20.721914 9.044955 0.391646 
0.000000 6.459362 0.000000 -89.999138 -0.002637 -88.998932 -0.446646 0.315407 -0.275759 -0.319891 0.344838 -1.125320 -0.041369 -22.622854 0.006400 -1.323197 -19.051413 -16.128708 -2.001868 -30.000090 -10.003426 -35.717628 -13.523443 10.543057 -96.639313 2.801501 -7.708346 -15.296921 -4.319858 -19.345669 -16.341347 -25.507147 -4.296544 -94.738838 63.539215 -178.075180 47.562428 -15.735660 -0.211226 -23.093353 5.739161 -12.910153 -32.560173 -12.418792 0.582849 48.977840 19.940199 8.698886 6.502425 -19.300364 -6.062202 -4.580662 -3.431539 -0.421203 55.245766 4.701371 -0.356979 20.721914 9.044955 0.391646 
0.000000 6.459362 0.000000 -89.999138 -0.002637 -88.998932 -0.446646 0.315407 -0.275759 -0.319891 0.344838 -1.125320 -0.036224 -22.795542 0.005662 -1.284892 -19.296209 -16.237085 -2.001868 -30.000090 -10.003426 -35.758102 -13.386458 10.683801 -96.437958 2.764877 -7.784482 -15.248537 -4.427069 -19.343287 -16.341347 -25.507147 -4.296544 -94.738838 63.539215 -178.075180 47.562428 -15.735660 -0.211226 -23.093353 5.739161 -12.910153 -32.560173 -12.418792 0.582849 48.977840 19.940199 8.698886 6.502425 -19.300364 -6.062202 -4.580661 -3.431539 -0.421203 55.245766 4.701371 -0.356979 20.721914 9.044955 0.391646 
0.000000 6.459362 0.000000 -89.999138 -0.002637 -88.998932 -0.446646 0.315407 -0.275759 -0.319891 0.344838 -1.125320 -0.031071 -22.968170 0.004906 -1.246070 -19.540737 -16.345713 -2.001868 -30.000090 -10.003426 -35.798229 -13.249358 10.824389 -96.236595 2.727980 -7.860498 -15.200144 -4.534286 -19.340986 -16.341347 -25.507147 -4.296544 -94.738838 63.539215 -178.075180 47.562428 -15.735660 -0.211226 -23.093351 5.739161 -12.910152 -32.560173 -12.418792 0.582849 48.977840 19.940199 8.698886 6.502425 -19.300364 -6.062202 -4.580662 -3.431539 -0.421203 55.245766 4.701371 -0.356979 20.721914 9.044955 0.391646 
0.000000 6.459362 0.000000 -89.999138 -0.002637 -88.998932 -0.446646 0.315407 -0.275759 -0.319891 0.344838 -1.125320 -0.025912 -23.140745 0.004133 -1.206728 -19.784998 -16.454590 -2.001868 -30.000090 -10.003426 -35.837986 -13.112141 10.964814 -96.035271 2.690811 -7.936396 -15.151744 -4.641509 -19.338774 -16.341347 -25.507147 -4.296544 -94.738838 63.539215 -178.075180 47.562428 -15.735660 -0.211226 -23.093353 5.739161 -12.910153 -32.560173 -12.418792 0.582849 48.977840 19.940199 8.698886 6.502425 -19.300364 -6.062202 -4.580661 -3.431539 -0.421203 55.245766 4.701371 -0.356979 20.721914 9.044955 0.391646 
0.000000 6.459362 0.000000 -89.999138 -0.002637 -88.998932 -0.446646 0.315407 -0.275759 -0.319891 0.344838 -1.125320 -0.020745 -23.313259 0.003342 -1.166865 -20.028978 -16.563719 -2.001868 -30.000090 -10.003426 -35.877377 -12.974814 11.105083 -95.833969 2.653369 -8.012173 -15.103343 -4.748743 -19.336660 -16.341347 -25.507147 -4.296544 -94.738838 63.539215 -178.075180 47.562428 -15.735660 -0.211226 -23.093351 5.739161 -12.910152 -32.560173 -12.418792 0.582849 48.977840 19.940199 8.698886 6.502425 -19.300364 -6.062202 -4.580662 -3.431539 -0.421203 55.245766 4.701371 -0.356979 20.721914 9.044955 0.391646 
0.000000 6.459362 0.000000 -89.999146 -0.002635 -88.998932 -0.446646 0.315407 -0.275759 -0.319891 0.344838 -1.125320 -0.015570 -23.485704 0.002533 -1.126478 -20.272686 -16.673113 -2.001868 -30.000090 -10.003426 -35.916420 -12.837383 11.245199 -95.632675 2.615655 -8.087821 -15.054937 -4.855979 -19.334635 -16.341347 -25.507147 -4.296544 -94.738838 63.539215 -178.075180 47.562428 -15.735660 -0.211226 -23.093353 5.739161 -12.910153 -32.560173 -12.418792 0.582849 48.977840 19.940199 8.698886 6.502425 -19.300364 -6.062202 -4.580662 -3.431539 -0.421203 55.245766 4.701371 -0.356979 20.721914 9.044955 0.391646 
0.000000 6.459362 0.000000 -89.999146 -0.002635 -88.998932 -0.446646 0.315407 -0.275759 -0.319891 0.344838 -1.125320 -0.010388 -23.658100 0.001706 -1.085566 -20.516119 -16.782772 -2.001868 -30.000090 -10.003426 -35.955093 -12.699837 11.385157 -95.431435 2.577673 -8.163350 -15.006523 -4.963224 -19.332701 -16.341347 -25.507147 -4.296544 -94.738838 63.539215 -178.075180 47.562428 -15.735660 -0.211226 -23.093353 5.739162 -12.910153 -32.560173 -12.418792 0.582849 48.977840 19.940199 8.698886 6.502425 -19.300364 -6.062202 -4.580662 -3.431539 -0.421203 55.245766 4.701371 -0.356979 20.721914 9.044955 0.391646 
0.000000 6.459362 0.000000 -89.999146 -0.002635 -88.998932 -0.446646 0.315407 -0.275759 -0.319891 0.344838 -1.125320 -0.005198 -23.830425 0.000862 -1.044125 -20.759264 -16.892696 -2.001868 -30.000090 -10.003426 -35.993397 -12.562185 11.524954 -95.230209 2.539419 -8.238750 -14.958102 -5.070473 -19.330854 -16.341347 -25.507147 -4.296544 -94.738838 63.539215 -178.075180 47.562428 -15.735660 -0.211226 -23.093351 5.739161 -12.910152 -32.560173 -12.418792 0.582849 48.977840 19.940199 8.698886 6.502425 -19.300364 -6.062202 -4.580662 -3.431539 -0.421203 55.245766 4.701371 -0.356979 20.721914 9.044955 0.391646 
0.000000 6.459362 0.000000 -89.999146 -0.002635 -88.998932 -0.446646 0.315407 -0.275759 -0.319891 0.344838 -1.125320 0.000000 -24.002691 0.000000 -1.002154 -21.002127 -17.002892 -2.001868 -30.000090 -10.003426 -36.031349 -12.424429 11.664601 -95.029007 2.500896 -8.314024 -14.909675 -5.177728 -19.329096 -16.341347 -25.507147 -4.296544 -94.738838 63.539215 -178.075180 47.562428 -15.735660 -0.211226 -23.093353 5.739161 -12.910153 -32.560173 -12.418792 0.582849 48.977840 19.940199 8.698886 6.502425 -19.300364 -6.062202 -4.580661 -3.431539 -0.421203 55.245766 4.701371 -0.356979 20.721914 9.044955 0.391646 
0.000000 6.459362 0.000000 -89.999146 -0.002635 -88.998932 -0.446646 0.315407 -0.275759 -0.319891 0.344838 -1.125320 -0.005982 -23.804398 0.000991 -1.050767 -20.720524 -16.875154 -2.001868 -30.000090 -10.003426 -36.068943 -12.286573 11.804094 -94.827835 2.462106 -8.389166 -14.861243 -5.284989 -19.327435 -16.341347 -25.507147 -4.296544 -94.738838 63.539215 -178.075180 47.562428 -15.735660 -0.211226 -23.093353 5.739162 -12.910153 -32.560173 -12.418792 0.582849 48.977840 19.940199 8.698886 6.502425 -19.300364 -6.062202 -4.580662 -3.431539 -0.421203 55.245766 4.701371 -0.356979 20.721914 9.044955 0.391646 
0.000000 6.459362 0.000000 -89.999146 -0.002635 -88.998932 -0.446646 0.315407 -0.275759 -0.319891 0.344838 -1.125320 -0.011954 -23.606014 0.001958 -1.098667 -20.438530 -16.747780 -2.001868 -30.000090 -10.003426 -36.106178 -12.148609 11.943437 -94.626717 2.423047 -8.464181 -14.812804 -5.392256 -19.325863 -16.341347 -25.507147 -4.296544 -94.738838 63.539215 -178.075180 47.562428 -15.735660 -0.211226 -23.093353 5.739161 -12.910153 -32.560173 -12.418792 0.582849 48.977840 19.940199 8.698886 6.502425 -19.300364 -6.062202 -4.580662 -3.431539 -0.421203 55.245770 4.701371 -0.356979 20.721914 9.044955 0.391646 
0.000000 6.459362 0.000000 -89.999146 -0.002635 -88.998932 -0.446646 0.315407 -0.275759 -0.319891 0.344838 -1.125320 -0.017916 -23.407553 0.002902 -1.145859 -20.156164 -16.620764 -2.001868 -30.000090 -10.003426 -36.143040 -12.010547 12.082623 -94.425636 2.383722 -8.539065 -14.764354 -5.499526 -19.324381 -16.341347 -25.507147 -4.296544 -94.738838 63.539215 -178.075180 47.562428 -15.735660 -0.211226 -23.093353 5.739161 -12.910153 -32.560173 -12.418792 0.582849 48.977840 19.940199 8.698886 6.502425 -19.300364 -6.062202 -4.580662 -3.431539 -0.421203 55.245766 4.701371 -0.356979 20.721914 9.044955 0.391646 
0.000000 6.459362 0.000000 -89.999146 -0.002635 -88.998932 -0.446646 0.315407 -0.275759 -0.319891 0.344838 -1.125320 -0.023868 -23.209013 0.003822 -1.192345 -19.873425 -16.494097 -2.001868 -30.000090 -10.003426 -36.179565 -11.872389 12.221665 -94.224571 2.344130 -8.613812 -14.715899 -5.606801 -19.322989 -16.341347 -25.507147 -4.296544 -94.738838 63.539215 -178.075180 47.562428 -15.735660 -0.211226 -23.093351 5.739161 -12.910152 -32.560173 -12.418792 0.582849 48.977840 19.940199 8.698886 6.502425 -19.300364 -6.062202 -4.580662 -3.431539 -0.421203 55.245770 4.701371 -0.356979 20.721914 9.044955 0.391646 
0.000000 6.459362 0.000000 -89.999146 -0.002635 -88.998932 -0.446646 0.315407 -0.275759 -0.319891 0.344838 -1.125320 -0.029810 -23.010389 0.004718 -1.238130 -19.590315 -16.367779 -2.001868 -30.000090 -10.003426 -36.215710 -11.734135 12.360554 -94.023567 2.304273 -8.688426 -14.667437 -5.714079 -19.321686 -16.341347 -25.507147 -4.296544 -94.738838 63.539215 -178.075180 47.562428 -15.735660 -0.211226 -23.093353 5.739161 -12.910153 -32.560173 -12.418792 0.582849 48.977840 19.940199 8.698886 6.502425 -19.300364 -6.062202 -4.580661 -3.431539 -0.421203 55.245766 4.701371 -0.356979 20.721914 9.044955 0.391646 
0.000000 6.459362 0.000000 -89.999146 -0.002635 -88.998932 -0.446646 0.315407 -0.275759 -0.319891 0.344838 -1.125320 -0.035742 -22.811686 0.005592 -1.283216 -19.306850 -16.241804 -2.001868 -30.000090 -10.003426 -36.251511 -11.595785 12.499294 -93.822586 2.264151 -8.762903 -14.618966 -5.821362 -19.320478 -16.341347 -25.507147 -4.296544 -94.738838 63.539215 -178.075180 47.562428 -15.735660 -0.211226 -23.093353 5.739162 -12.910153 -32.560173 -12.418792 0.582849 48.977840 19.940199 8.698886 6.502425 -19.300364 -6.062202 -4.580662 -3.431539 -0.421203 55.245762 4.701371 -0.356979 20.721914 9.044955 0.391646 
